<svg width="597" height="354" viewBox="0 0 597 354" fill="none" xmlns="http://www.w3.org/2000/svg">
<path d="M568.107 207.114C568.257 228.084 566.842 247.306 564.231 264.307C564.047 265.584 563.839 266.861 563.621 268.103C562.252 276.385 560.584 284.104 558.698 291.236C558.364 292.455 558.03 293.663 557.697 294.848C550.438 320.224 540.12 337.375 529.112 343.713H66.9175C66.9175 343.713 27.5194 309.56 19.6053 260.764C19.3982 259.522 19.2142 258.279 19.0647 257.026C15.9933 232.743 20.9397 205.089 42.2204 176.32C51.929 163.229 64.6859 154.107 79.3408 147.827C80.4912 147.344 81.6185 146.884 82.7918 146.435C104.521 137.934 130.046 135.265 155.675 134.863C156.975 134.84 158.264 134.828 159.563 134.828C174.828 134.713 190.047 135.346 204.483 135.921C205.852 135.99 207.209 136.048 208.555 136.105C231.86 137.083 252.865 137.808 268.107 135.012H268.13C269.533 134.748 270.867 134.46 272.167 134.127H272.19C289.065 129.997 297.382 120.415 291.4 99.8244C279.805 59.8742 291.676 30.5873 317.512 14.414C318.824 13.5857 320.193 12.7805 321.584 12.0213C336.193 4.09569 354.667 -0.056926 375.557 0.000589437C377.018 0.000589437 378.502 0.0350987 379.997 0.069608C397.758 0.610253 417.152 4.10719 437.294 10.7905C448.13 14.3795 458.23 18.8311 467.582 23.9615C468.732 24.5942 469.882 25.2384 470.987 25.9055C489.322 36.4999 504.76 49.878 517.54 64.993C518.414 65.9938 519.242 67.0176 520.082 68.0529C553.291 109.004 567.774 161.849 568.107 207.114Z" fill="#6BC4FF"/>
<path d="M558.697 291.247C558.363 292.467 558.029 293.675 557.696 294.859C550.863 292.409 543.674 289.28 536.323 285.3C502.423 266.884 459.264 225.875 446.185 134.966C440.548 95.7754 447.738 58.4479 467.581 23.9731C468.731 24.6058 469.881 25.25 470.985 25.9172C453.57 56.1473 443.792 92.29 449.854 134.426C462.715 223.724 504.828 263.939 537.91 281.941C545.031 285.818 552.025 288.878 558.697 291.247Z" fill="white"/>
<path d="M564.242 264.318C564.058 265.595 563.851 266.872 563.632 268.114C542.225 258.061 515.227 236.182 502.631 188.686C490.461 142.696 495.315 101.872 517.539 65.0044C518.414 66.0052 519.242 67.0289 520.082 68.0642C498.95 103.781 494.441 143.283 506.232 187.742C518.264 233.18 543.767 254.403 564.242 264.318Z" fill="white"/>
<path d="M362.134 77.6466C363.928 137.992 357.061 176.987 339.852 204.1C321.827 232.513 291.769 249.687 242.364 259.775C233.161 261.661 224.062 262.605 215.136 262.605C187.333 262.605 161.14 253.552 138.192 235.837C111.504 215.224 91.0634 184.177 79.3418 147.838C80.4921 147.355 81.6194 146.895 82.7927 146.447C94.2728 182.175 114.3 212.704 140.469 232.915C169.883 255.645 204.875 263.663 241.627 256.163C333.503 237.367 361.881 194 358.43 77.7501C357.452 44.7477 363.204 18.6932 375.558 0.012207C377.019 0.012207 378.503 0.0467163 379.998 0.0812256C367.149 18.2446 361.156 44.2416 362.134 77.6466Z" fill="white"/>
<path d="M247.492 202.524C243.673 203.156 239.728 203.49 235.713 203.49C206.093 203.49 172.182 185.545 155.675 134.886C156.975 134.863 158.263 134.851 159.563 134.851C177.749 189.238 216.745 203.835 246.883 198.889C287.592 192.217 326.749 150.3 319.18 85.756C315.924 58.0681 315.775 34.4292 317.512 14.4368C318.823 13.6086 320.192 12.8034 321.584 12.0442C319.559 32.4047 319.49 56.6647 322.861 85.3189C330.694 152.14 289.87 195.576 247.492 202.524Z" fill="white"/>
<path d="M272.167 134.138C270.74 140.638 268.244 147.275 263.965 152.842C258.283 160.285 250.299 164.702 240.234 165.933C239.026 166.083 237.842 166.152 236.68 166.152C230.434 166.152 224.717 164.023 219.644 159.756C212.937 154.119 208.049 145.377 204.494 135.921C205.863 135.99 207.22 136.048 208.566 136.105C211.868 144.48 216.239 152.049 222.036 156.926C227.224 161.274 233.206 163.08 239.786 162.263C248.827 161.148 255.959 157.225 261.032 150.611C264.552 146.021 266.772 140.511 268.129 135.013H268.152C269.533 134.771 270.867 134.472 272.167 134.138Z" fill="white"/>
<path d="M128.332 343.724H124.295C107.684 305.683 83.7348 280.319 53.0216 268.298C41.8751 263.927 30.556 261.65 19.6051 260.775C19.398 259.533 19.214 258.291 19.0645 257.037C30.6021 257.865 42.5653 260.246 54.3674 264.859C86.438 277.409 111.296 303.9 128.332 343.724Z" fill="white"/>
<path d="M394.306 320.434V320.459C393.737 322.759 392.937 324.866 391.908 326.754C382.489 343.971 341.712 341.138 341.712 341.138H248.62C210.095 341.138 194.658 340.181 190.966 328.159C190.748 327.517 190.59 326.827 190.457 326.113C187.842 312.129 200.845 266.654 224.89 235.454C237.191 219.509 249.903 211.107 261.236 206.712C272.059 202.523 281.612 201.978 288.319 201.978C300.136 201.978 309.664 202.85 317.764 204.75C339.484 209.835 350.853 222.124 367.888 243.893C388.712 270.504 398.967 301.753 394.306 320.434Z" fill="#0071BC"/>
<path opacity="0.22" d="M230.58 309.392C240.677 293.508 243.862 271.461 246.671 249.099L255.448 294.585H331.481L345.453 249.099C345.126 270.359 348.044 291.207 358.129 311.16C358.117 311.16 308.405 367.41 230.58 309.392Z" fill="#1F395E"/>
<path d="M253.669 341.138H248.62C210.095 341.138 194.658 340.181 190.966 328.159C188.956 318.703 191.51 308.763 203.037 305.797C221.088 301.16 252.519 319.441 252.519 319.441L253.669 341.138Z" fill="url(#paint0_linear)"/>
<path d="M394.306 320.434C394.306 320.434 394.33 320.434 394.306 320.459C393.737 322.759 392.938 324.866 391.909 326.754C382.489 343.971 341.713 341.138 341.713 341.138H314.084L317.595 317.747C317.595 317.747 366.569 295.07 384.112 302.153C392.696 305.603 395.323 312.771 394.306 320.434Z" fill="url(#paint1_linear)"/>
<path d="M317.753 204.751C316.929 215.683 312.413 235.612 290.378 235.612C267.157 235.612 262.241 215.974 261.236 206.724C272.06 202.535 281.613 201.99 288.32 201.99C300.125 201.978 309.665 202.862 317.753 204.751Z" fill="#1F395E"/>
<path d="M337.814 341.126H248.62C246.465 341.126 244.722 339.382 244.722 337.227C244.722 335.072 246.465 333.329 248.62 333.329H337.814C339.969 333.329 341.712 335.072 341.712 337.227C341.712 339.382 339.969 341.126 337.814 341.126Z" fill="white"/>
<path d="M348.614 274.076L348.287 276.098V276.122L339.049 333.341H248.136L238.995 274.04C238.547 271.134 240.811 268.507 243.729 268.507H343.88C346.834 268.495 349.086 271.146 348.614 274.076Z" fill="#0DC90D"/>
<path d="M348.286 276.122L339.048 333.341H248.632L279.275 330.145C310.73 326.888 337.535 305.87 348.286 276.122Z" fill="url(#paint2_linear)"/>
<path d="M290.004 227.319H289.398C285.887 227.319 282.981 226.592 280.621 225.539C274.894 222.96 271.419 216.979 271.552 210.707C271.576 210.066 271.576 209.436 271.576 208.819C271.601 203.613 271.262 199.29 271.262 199.29V196.954L304.012 195.489C304.133 200.211 304.677 204.4 305.319 207.753C305.343 207.814 305.343 207.85 305.356 207.911C307.244 217.754 300.028 227.076 290.004 227.319Z" fill="#FEB19E"/>
<path d="M305.33 207.754C291.685 223.784 277.665 214.425 271.587 208.831C271.611 203.625 271.272 199.303 271.272 199.303V196.966L304.022 195.501C304.143 200.211 304.688 204.4 305.33 207.754Z" fill="#FF856A"/>
<path d="M261.25 181.033C261.25 181.033 271.408 209.654 288.346 209.654C305.284 209.654 312.33 178.829 312.33 178.829V152.024H259.967L261.25 181.033Z" fill="#FEB19E"/>
<path d="M255.801 164.882C255.801 164.882 250.813 165.79 251.66 171.516C252.508 177.243 257.714 184.193 261.939 180.536L255.801 164.882Z" fill="#FEB19E"/>
<path d="M316.276 162.484C316.276 162.484 321.337 162.714 321.277 168.502C321.216 174.289 317.003 181.88 312.317 178.829L316.276 162.484Z" fill="#FEB19E"/>
<path d="M316.276 162.484C316.276 162.484 314.521 172.497 312.317 178.829C312.317 178.829 308.31 178.018 307.002 167.46C307.002 167.46 298.334 169.155 292.885 160.959C292.885 160.959 291.59 169.083 283.224 163.32C277.642 167.872 271.044 168.356 263.562 165.269C263.562 165.269 264.821 175.923 261.249 181.033C261.249 181.033 259.954 176.819 255.801 164.882C255.801 164.882 254.021 164.942 252.883 166.565C252.883 166.565 243.912 149.009 248.137 140.57C252.363 132.12 258.053 135.376 258.053 135.376C258.053 135.376 255.946 123.838 268.453 119.613C280.96 115.388 280.96 109.697 282.909 110.835C284.858 111.973 285.669 116.199 285.669 116.199C285.669 116.199 307.281 113.923 313.128 137.156C313.128 137.156 328.735 137.653 319.473 163.816C319.461 163.816 318.855 162.727 316.276 162.484Z" fill="url(#paint3_linear)"/>
<path d="M594.789 353.802H2.11875C0.956466 353.802 0 352.858 0 351.683V343.244C0 342.082 0.944359 341.126 2.11875 341.126H594.789C595.951 341.126 596.908 342.07 596.908 343.244V351.683C596.896 352.858 595.951 353.802 594.789 353.802Z" fill="#C1C8D3"/>
<path d="M473.499 309.877H448.159V331.815C448.159 336.924 452.3 341.077 457.421 341.077H464.25C469.359 341.077 473.512 336.936 473.512 331.815V309.877H473.499Z" fill="#0DC90D"/>
<path d="M456.197 309.877V303.109C456.197 301.995 457.093 301.099 458.207 301.099H460.762C461.876 301.099 462.772 300.203 462.772 299.09V296.535C462.772 295.421 461.876 294.525 460.762 294.525H452.541C446.887 294.525 442.311 289.949 442.311 284.295C442.311 278.641 446.887 274.064 452.541 274.064H463.45C464.564 274.064 465.459 273.168 465.459 272.054V271.146C465.459 265.286 470.205 260.54 476.065 260.54C481.925 260.54 486.671 265.286 486.671 271.146C486.671 277.466 481.538 282.6 475.218 282.6H456.028C454.914 282.6 454.018 283.495 454.018 284.609C454.018 285.723 454.914 286.619 456.028 286.619H466.513C470.387 286.619 473.523 289.755 473.523 293.629V298.012C473.523 301.886 470.387 305.022 466.513 305.022C465.399 305.022 464.503 305.918 464.503 307.032V309.901H456.197V309.877Z" fill="url(#paint4_linear)"/>
<defs>
<linearGradient id="paint0_linear" x1="222.008" y1="342.576" x2="222.008" y2="311.043" gradientUnits="userSpaceOnUse">
<stop stop-color="#1F3A65"/>
<stop offset="1" stop-color="#294A7A"/>
</linearGradient>
<linearGradient id="paint1_linear" x1="354.301" y1="342.576" x2="354.301" y2="311.043" gradientUnits="userSpaceOnUse">
<stop stop-color="#1F3A65"/>
<stop offset="1" stop-color="#294A7A"/>
</linearGradient>
<linearGradient id="paint2_linear" x1="248.618" y1="304.732" x2="348.28" y2="304.732" gradientUnits="userSpaceOnUse">
<stop stop-color="#003906"/>
<stop offset="1" stop-color="#0DC90D" stop-opacity="0.4"/>
</linearGradient>
<linearGradient id="paint3_linear" x1="285.314" y1="171.779" x2="284.005" y2="120.741" gradientUnits="userSpaceOnUse">
<stop stop-color="#3F2323"/>
<stop offset="1" stop-color="#5E3434"/>
</linearGradient>
<linearGradient id="paint4_linear" x1="484.352" y1="238.421" x2="452.184" y2="302.269" gradientUnits="userSpaceOnUse">
<stop stop-color="#E2E8F7"/>
<stop offset="1" stop-color="white"/>
</linearGradient>
</defs>
</svg>
