<svg id="Layer_1" data-name="Layer 1" xmlns="http://www.w3.org/2000/svg" viewBox="0 0 325.94 97.32"><defs><style>.cls-1{fill:#231f20;}.cls-2{fill:#fff200;}.cls-3{fill:#fff;}</style></defs><title>taraz logo</title><path class="cls-1" d="M137,251.34h11.6v13.81h13.66v11.6H148.63v40.88a13.61,13.61,0,0,0,13.66,13.73V343A25.27,25.27,0,0,1,137,317.63Z" transform="translate(-137.03 -251.34)"/><path class="cls-1" d="M211.89,344a39.86,39.86,0,1,1,28.29-68V265.3h11.61V343H240.18v-10.7A38.38,38.38,0,0,1,211.89,344Zm0-68.11a28.25,28.25,0,0,0,0,56.5,27.46,27.46,0,0,0,20-8.26,28.29,28.29,0,0,0-20-48.24Z" transform="translate(-137.03 -251.34)"/><path class="cls-1" d="M307,264.31v11.61h-1.44a19.39,19.39,0,0,0-14.34,6,19.66,19.66,0,0,0-6,14.41V343H273.63V265.3h11.61v6.37a30.93,30.93,0,0,1,20.33-7.36Z" transform="translate(-137.03 -251.34)"/><path class="cls-1" d="M345.93,344a39.88,39.88,0,0,1-39.82-39.81,40,40,0,0,1,11.82-28.36,39.81,39.81,0,0,1,56.29.21V265.3h11.61V343h-8.62a3,3,0,0,1-3-3v-7.71A38.41,38.41,0,0,1,345.93,344Zm0-68.11a28.36,28.36,0,0,0-28.22,28.29A28.34,28.34,0,0,0,326,324.15a28.26,28.26,0,0,0,48.25-19.94,28.41,28.41,0,0,0-8.41-20.09A27.27,27.27,0,0,0,345.93,275.92Z" transform="translate(-137.03 -251.34)"/><path class="cls-1" d="M396.75,265.15H463l-46.49,66.21h43.91V343H394.18l46.49-66.22H396.75Z" transform="translate(-137.03 -251.34)"/><ellipse class="cls-2" cx="345.97" cy="304.43" rx="28.39" ry="28.4" transform="translate(-103.66 391.69) rotate(-88.63)"/><path class="cls-3" d="M329.67,300.39a2.11,2.11,0,0,1-2.08-2.56c2.2-10.66,13.05-17.46,24.18-15.16a2.13,2.13,0,0,1-.86,4.17c-8.84-1.84-17.43,3.49-19.15,11.85A2.14,2.14,0,0,1,329.67,300.39Z" transform="translate(-137.03 -251.34)"/><path class="cls-2" d="M388.86,340.21l-8.52,8.2a.84.84,0,0,1-1.24-.05l-13.29-16.28a41.35,41.35,0,0,0,6.84-6.59L388.83,339A.84.84,0,0,1,388.86,340.21Z" transform="translate(-137.03 -251.34)"/></svg>